<svg width="182" height="86" viewBox="0 0 182 86" fill="none" xmlns="http://www.w3.org/2000/svg">
<path d="M14.8541 24.7088C9.39645 24.7088 5 20.3122 5 14.8544C5 9.39658 9.39645 5 14.8541 5C20.3118 5 24.7082 9.39658 24.7082 14.8544C24.7082 20.3122 20.3118 24.7088 14.8541 24.7088ZM14.8541 6.51606C10.2303 6.51606 6.51602 10.2304 6.51602 14.8544C6.51602 19.4784 10.2303 23.1927 14.8541 23.1927C19.4779 23.1927 23.1922 19.4784 23.1922 14.8544C23.1922 10.2304 19.4779 6.51606 14.8541 6.51606Z" fill="#9C7A61"/>
<path d="M22.1929 21.1211L28.9998 27.9282L27.928 29.0001L21.1211 22.1929L22.1929 21.1211Z" fill="#9C7A61"/>
<path d="M34 5H40V11H34V5Z" fill="#9C7A61"/>
<path d="M34 14H40V20H34V14Z" fill="#9C7A61"/>
<path d="M40 23H34V29H40V23Z" fill="#9C7A61"/>
<path d="M43 5H49V11H43V5Z" fill="#9C7A61"/>
<path d="M49 14H43V20H49V14Z" fill="#9C7A61"/>
<path d="M43 23H49V29H43V23Z" fill="#9C7A61"/>
<path d="M58 5H52V11H58V5Z" fill="#9C7A61"/>
<path d="M52 14H58V20H52V14Z" fill="#9C7A61"/>
<path d="M58 23H52V29H58V23Z" fill="#9C7A61"/>
<path d="M34 34H40V40H34V34Z" fill="white"/>
<path d="M34 43H40V49H34V43Z" fill="white"/>
<path d="M40 52H34V58H40V52Z" fill="white"/>
<path d="M43 34H49V40H43V34Z" fill="white"/>
<path d="M49 43H43V49H49V43Z" fill="white"/>
<path d="M43 52H49V58H43V52Z" fill="white"/>
<path d="M58 34H52V40H58V34Z" fill="white"/>
<path d="M52 43H58V49H52V43Z" fill="white"/>
<path d="M58 52H52V58H58V52Z" fill="white"/>
<path d="M69.68 14.6729H68.9092C67.8574 14.6319 66.809 14.8243 65.829 15.2381C64.8491 15.6518 63.9585 16.2782 63.2126 17.0782L63 17.3455V25.2487H66.6146V20.7626L67.1019 20.1708L67.3234 19.894C68.4768 18.6173 69.9128 17.6779 71.4961 17.1641C70.7034 16.5142 70.0782 15.6566 69.68 14.6729V14.6729Z" fill="#9C7A61"/>
<path d="M86.814 17.0494C86.0681 16.2494 85.1775 15.623 84.1976 15.2093C83.2177 14.7955 82.1692 14.6031 81.1174 14.6441C80.7948 14.6451 80.4725 14.6642 80.1518 14.7013C79.7461 15.6242 79.1379 16.4269 78.3799 17.0399C80.0702 17.5437 81.6015 18.5335 82.8096 19.9033L83.031 20.1706L83.5095 20.7624V25.258H87V17.3167L86.814 17.0494Z" fill="#9C7A61"/>
<path d="M68.8826 12.8116H69.1573C69.0297 11.6311 69.2219 10.4361 69.7108 9.37071C70.1997 8.30536 70.9644 7.41524 71.9125 6.80781C71.5688 6.24212 71.0947 5.7823 70.5365 5.47337C69.9783 5.16444 69.3552 5.01699 68.7282 5.04545C68.1013 5.07392 67.4919 5.27733 66.9598 5.63576C66.4277 5.99419 65.9912 6.49536 65.6929 7.09019C65.3946 7.68502 65.2448 8.35312 65.2581 9.02906C65.2715 9.705 65.4476 10.3656 65.7691 10.9462C66.0907 11.5268 66.5467 12.0075 67.0925 12.3412C67.6382 12.6748 68.2551 12.8501 68.8826 12.8497V12.8116Z" fill="#9C7A61"/>
<path d="M80.6922 12.0959C80.703 12.3153 80.703 12.5351 80.6922 12.7545C80.8622 12.7835 81.0339 12.7995 81.206 12.8022H81.3744C81.9991 12.7663 82.6046 12.5568 83.1319 12.1939C83.6592 11.831 84.0903 11.3273 84.3832 10.7317C84.6762 10.136 84.821 9.46882 84.8035 8.795C84.7861 8.12118 84.607 7.46372 84.2837 6.88661C83.9604 6.3095 83.5039 5.83241 82.9586 5.5018C82.4134 5.17119 81.798 4.99832 81.1723 5.00001C80.5467 5.00171 79.9321 5.17792 79.3884 5.51148C78.8447 5.84504 78.3904 6.3246 78.0698 6.90345C78.8717 7.46749 79.531 8.23717 79.9887 9.14343C80.4464 10.0497 80.6881 11.0642 80.6922 12.0959V12.0959Z" fill="#9C7A61"/>
<path d="M74.8805 16.3718C77.0677 16.3718 78.8407 14.4616 78.8407 12.1052C78.8407 9.74884 77.0677 7.83862 74.8805 7.83862C72.6934 7.83862 70.9204 9.74884 70.9204 12.1052C70.9204 14.4616 72.6934 16.3718 74.8805 16.3718Z" fill="#9C7A61"/>
<path d="M75.0932 18.6436C73.9363 18.5932 72.7818 18.7956 71.6993 19.2385C70.6167 19.6814 69.6286 20.3556 68.7942 21.2207L68.5728 21.488V27.5299C68.5762 27.7267 68.6156 27.9208 68.6887 28.1012C68.7618 28.2816 68.8672 28.4447 68.9989 28.5812C69.1305 28.7177 69.2858 28.825 69.4559 28.8968C69.626 28.9686 69.8076 29.0036 69.9903 28.9998H80.1697C80.3523 29.0036 80.5339 28.9686 80.704 28.8968C80.8741 28.825 81.0294 28.7177 81.161 28.5812C81.2927 28.4447 81.3981 28.2816 81.4712 28.1012C81.5443 27.9208 81.5837 27.7267 81.5872 27.5299V21.507L81.3745 21.2207C80.5456 20.353 79.5609 19.6768 78.4808 19.2337C77.4007 18.7905 76.2479 18.5897 75.0932 18.6436V18.6436Z" fill="#9C7A61"/>
<path d="M69.68 43.6729H68.9092C67.8574 43.6319 66.809 43.8243 65.829 44.2381C64.8491 44.6518 63.9585 45.2782 63.2126 46.0782L63 46.3455V54.2487H66.6146V49.7626L67.1019 49.1708L67.3234 48.894C68.4768 47.6173 69.9128 46.6779 71.4961 46.1641C70.7034 45.5142 70.0782 44.6566 69.68 43.6729V43.6729Z" fill="white"/>
<path d="M86.814 46.0494C86.0681 45.2494 85.1775 44.623 84.1976 44.2093C83.2177 43.7955 82.1692 43.6031 81.1174 43.6441C80.7948 43.6451 80.4725 43.6642 80.1518 43.7013C79.7461 44.6242 79.1379 45.4269 78.3799 46.0399C80.0702 46.5437 81.6015 47.5335 82.8096 48.9033L83.031 49.1706L83.5095 49.7624V54.258H87V46.3167L86.814 46.0494Z" fill="white"/>
<path d="M68.8826 41.8116H69.1573C69.0297 40.6311 69.2219 39.4361 69.7108 38.3707C70.1997 37.3054 70.9644 36.4152 71.9125 35.8078C71.5688 35.2421 71.0947 34.7823 70.5365 34.4734C69.9783 34.1644 69.3552 34.017 68.7282 34.0455C68.1013 34.0739 67.4919 34.2773 66.9598 34.6358C66.4277 34.9942 65.9912 35.4954 65.6929 36.0902C65.3946 36.685 65.2448 37.3531 65.2581 38.0291C65.2715 38.705 65.4476 39.3656 65.7691 39.9462C66.0907 40.5268 66.5467 41.0075 67.0925 41.3412C67.6382 41.6748 68.2551 41.8501 68.8826 41.8497V41.8116Z" fill="white"/>
<path d="M80.6922 41.0959C80.703 41.3153 80.703 41.5351 80.6922 41.7545C80.8622 41.7835 81.0339 41.7995 81.206 41.8022H81.3744C81.9991 41.7663 82.6046 41.5568 83.1319 41.1939C83.6592 40.831 84.0903 40.3273 84.3832 39.7317C84.6762 39.136 84.821 38.4688 84.8035 37.795C84.7861 37.1212 84.607 36.4637 84.2837 35.8866C83.9604 35.3095 83.5039 34.8324 82.9586 34.5018C82.4134 34.1712 81.798 33.9983 81.1723 34C80.5467 34.0017 79.9321 34.1779 79.3884 34.5115C78.8447 34.845 78.3904 35.3246 78.0698 35.9034C78.8717 36.4675 79.531 37.2372 79.9887 38.1434C80.4464 39.0497 80.6881 40.0642 80.6922 41.0959V41.0959Z" fill="white"/>
<path d="M74.8805 45.3718C77.0677 45.3718 78.8407 43.4616 78.8407 41.1052C78.8407 38.7488 77.0677 36.8386 74.8805 36.8386C72.6934 36.8386 70.9204 38.7488 70.9204 41.1052C70.9204 43.4616 72.6934 45.3718 74.8805 45.3718Z" fill="white"/>
<path d="M75.0932 47.6436C73.9363 47.5932 72.7818 47.7956 71.6993 48.2385C70.6167 48.6814 69.6286 49.3556 68.7942 50.2207L68.5728 50.488V56.5299C68.5762 56.7267 68.6156 56.9208 68.6887 57.1012C68.7618 57.2816 68.8672 57.4447 68.9989 57.5812C69.1305 57.7177 69.2858 57.825 69.4559 57.8968C69.626 57.9686 69.8076 58.0036 69.9903 57.9998H80.1697C80.3523 58.0036 80.5339 57.9686 80.704 57.8968C80.8741 57.825 81.0294 57.7177 81.161 57.5812C81.2927 57.4447 81.3981 57.2816 81.4712 57.1012C81.5443 56.9208 81.5837 56.7267 81.5872 56.5299V50.507L81.3745 50.2207C80.5456 49.353 79.5609 48.6768 78.4808 48.2337C77.4007 47.7905 76.2479 47.5897 75.0932 47.6436V47.6436Z" fill="white"/>
<path d="M126.61 29.5202C125.003 27.7793 123.053 26.3899 120.883 25.4396C118.712 24.4894 116.369 23.9988 114 23.9988C111.631 23.9988 109.287 24.4894 107.117 25.4396C104.947 26.3899 102.997 27.7793 101.39 29.5202C101.142 29.7945 101.003 30.1504 101 30.5202V36.5201C101.005 36.9144 101.166 37.2908 101.446 37.5678C101.727 37.8448 102.106 38.0001 102.5 38.0001H125.5C125.897 38.0001 126.279 37.842 126.56 37.5607C126.841 37.2794 127 36.8979 127 36.5001V30.5002C126.992 30.1373 126.853 29.7894 126.61 29.5202V29.5202Z" fill="#463830"/>
<path d="M113.999 21.9997C117.865 21.9997 120.999 18.8658 120.999 14.9999C120.999 11.1339 117.865 8 113.999 8C110.133 8 106.999 11.1339 106.999 14.9999C106.999 18.8658 110.133 21.9997 113.999 21.9997Z" fill="#463830"/>
<path d="M158.5 39L156.398 36.842C148.93 29.2071 144 24.1553 144 17.9918C144 12.9401 147.509 9 151.975 9C154.498 9 156.92 10.3243 158.5 12.4005C160.081 10.3243 162.502 9 165.025 9C169.491 9 173 12.9401 173 17.9918C173 24.1553 168.07 29.2071 160.603 36.842L158.5 39Z" fill="#463830"/>
<path d="M109.977 79C111.38 79 112.518 77.8573 112.518 76.4476C112.518 75.038 111.38 73.8953 109.977 73.8953C108.573 73.8953 107.436 75.038 107.436 76.4476C107.436 77.8573 108.573 79 109.977 79Z" fill="#463830"/>
<path d="M123.191 79C124.594 79 125.732 77.8573 125.732 76.4476C125.732 75.038 124.594 73.8953 123.191 73.8953C121.787 73.8953 120.649 75.038 120.649 76.4476C120.649 77.8573 121.787 79 123.191 79Z" fill="#463830"/>
<path fill-rule="evenodd" clip-rule="evenodd" d="M117.276 52.4552V52.4144H128.713C129.638 52.7681 130.181 53.7624 129.945 54.7514L127.238 66.085C127.176 66.3431 127.067 66.5774 126.922 66.7808L126.87 66.9936C126.814 67.2201 126.683 67.4206 126.498 67.5618C126.313 67.703 126.086 67.7763 125.854 67.7695H110.17L107.72 69.8114C107.663 69.9137 107.632 70.0293 107.632 70.1469C107.631 70.2646 107.661 70.3803 107.719 70.4829C107.776 70.5856 107.858 70.6716 107.958 70.7329C108.058 70.7941 108.173 70.8283 108.29 70.8323H125.417C125.686 70.8323 125.945 70.9399 126.135 71.1314C126.326 71.3228 126.433 71.5825 126.433 71.8533C126.433 72.1241 126.326 72.3838 126.135 72.5752C125.945 72.7667 125.686 72.8742 125.417 72.8742H108.452C108.017 72.8959 107.582 72.8148 107.183 72.6376C106.784 72.4603 106.432 72.1917 106.155 71.8533C105.768 71.3578 105.565 70.7427 105.58 70.1132C105.594 69.4838 105.827 68.879 106.236 68.4025L106.368 68.2698L108.025 66.9017L103.37 52.1285L99.721 51.0055C99.4622 50.9256 99.2456 50.7457 99.1188 50.5054C98.992 50.2651 98.9655 49.9841 99.045 49.7242C99.1246 49.4642 99.3036 49.2467 99.5429 49.1193C99.6613 49.0563 99.791 49.0173 99.9244 49.0046C100.058 48.9919 100.193 49.0057 100.321 49.0452L104.488 50.3316C104.645 50.3797 104.788 50.4652 104.905 50.5807C105.021 50.6963 105.109 50.8385 105.159 50.9952L105.604 52.4143H117.276V52.4552H117.276Z" fill="#463830"/>
<path d="M156 67.9C154.5 67.9 152.9 67.3 151.8 66.1L139.3 53.7L140.7 52.3L153.2 64.8C154.8 66.4 157.3 66.4 158.9 64.8L171.4 52.3L172.8 53.7L160.2 66.2C159.1 67.3 157.5 67.9 156 67.9V67.9Z" fill="#463830"/>
<path d="M170 76H142C140.3 76 139 74.7 139 73V53C139 51.3 140.3 50 142 50H170C171.7 50 173 51.3 173 53V73C173 74.7 171.7 76 170 76ZM142 52C141.4 52 141 52.4 141 53V73C141 73.6 141.4 74 142 74H170C170.6 74 171 73.6 171 73V53C171 52.4 170.6 52 170 52H142Z" fill="#463830"/>
<path opacity="0.9" d="M162.796 62.2439L172.766 72.2139L171.351 73.6279L161.381 63.6579L162.796 62.2439Z" fill="#463830"/>
<path opacity="0.9" d="M149.278 62.2871L150.692 63.7011L140.792 73.6011L139.378 72.1911L149.278 62.2871Z" fill="#463830"/>
</svg>
