<svg width="48" height="199" viewBox="0 0 48 199" fill="none" xmlns="http://www.w3.org/2000/svg">
<path d="M18 13.5V20H27.5856L24.2931 16.7069C24.1135 16.5178 24.0148 16.2661 24.0182 16.0053C24.0215 15.7445 24.1266 15.4954 24.311 15.311C24.4954 15.1266 24.7445 15.0215 25.0053 15.0182C25.2661 15.0148 25.5178 15.1135 25.7069 15.2931L30.7069 20.2931C30.8943 20.4806 30.9995 20.7349 30.9995 21C30.9995 21.2651 30.8943 21.5194 30.7069 21.7069L25.7069 26.7069C25.5178 26.8865 25.2661 26.9852 25.0053 26.9818C24.7445 26.9785 24.4954 26.8734 24.311 26.689C24.1266 26.5046 24.0215 26.2555 24.0182 25.9947C24.0148 25.7339 24.1135 25.4822 24.2931 25.2931L27.5856 22H18V28.5C18.001 29.428 18.3701 30.3176 19.0262 30.9738C19.6824 31.6299 20.572 31.999 21.5 32H34.5C35.428 31.999 36.3176 31.6299 36.9738 30.9738C37.6299 30.3176 37.999 29.428 38 28.5V13.5C37.999 12.572 37.6299 11.6824 36.9738 11.0262C36.3176 10.3701 35.428 10.001 34.5 10H21.5C20.572 10.001 19.6824 10.3701 19.0262 11.0262C18.3701 11.6824 18.001 12.572 18 13.5V13.5Z" fill="white"/>
<path d="M11 20C10.7348 20 10.4804 20.1054 10.2929 20.2929C10.1054 20.4804 10 20.7348 10 21C10 21.2652 10.1054 21.5196 10.2929 21.7071C10.4804 21.8946 10.7348 22 11 22H18V20H11Z" fill="white"/>
<path d="M15.3 96H16.45V80.9474H15.3C14.69 80.9474 14.105 81.1914 13.6737 81.6256C13.2423 82.0599 13 82.649 13 83.2632V93.6842C13 94.2984 13.2423 94.8874 13.6737 95.3217C14.105 95.756 14.69 96 15.3 96ZM33.7 80.9474H25.65L26.9403 77.0476C27.0554 76.6995 27.0868 76.3289 27.0318 75.9663C26.9768 75.6036 26.8371 75.2593 26.624 74.9617C26.411 74.6641 26.1308 74.4218 25.8065 74.2545C25.4822 74.0873 25.1231 74.0001 24.7588 74H24.5L18.75 80.2966V96H31.4L35.8988 86.0467L36 85.5789V83.2632C36 82.649 35.7577 82.0599 35.3263 81.6256C34.895 81.1914 34.31 80.9474 33.7 80.9474V80.9474Z" fill="white"/>
<path d="M38.5716 128H28.8573C28.2135 127.999 27.5963 127.741 27.1411 127.283C26.6858 126.825 26.4297 126.204 26.4287 125.556V121.889H28.8573V125.556H38.5716V108.444H28.8573V112.111H26.4287V108.444C26.4294 107.796 26.6854 107.175 27.1407 106.717C27.596 106.258 28.2134 106.001 28.8573 106H38.5716C39.2155 106.001 39.8328 106.258 40.2881 106.717C40.7434 107.175 40.9995 107.796 41.0001 108.444V125.556C40.9992 126.204 40.743 126.825 40.2878 127.283C39.8325 127.741 39.2154 127.999 38.5716 128V128Z" fill="white"/>
<path d="M14.2856 115.778H19.1428V118.222H14.2856V115.778Z" fill="white"/>
<path d="M28.8572 115.778H33.7143V118.222H28.8572V115.778Z" fill="white"/>
<path d="M21.5715 115.778H26.4287V118.222H21.5715V115.778Z" fill="white"/>
<path d="M19.1429 128H9.42857C8.78467 127.999 8.16733 127.742 7.71202 127.283C7.25672 126.825 7.00064 126.204 7 125.556V108.444C7.00064 107.796 7.25672 107.175 7.71202 106.717C8.16733 106.258 8.78467 106.001 9.42857 106H19.1429C19.7868 106.001 20.4041 106.258 20.8594 106.717C21.3147 107.175 21.5708 107.796 21.5714 108.444V112.111H19.1429V108.444H9.42857V125.556H19.1429V121.889H21.5714V125.556C21.5708 126.204 21.3147 126.825 20.8594 127.283C20.4041 127.742 19.7868 127.999 19.1429 128V128Z" fill="white"/>
<path d="M31.4264 163.572C31.7937 163.939 32 164.436 32 164.954C32 165.473 31.7937 165.97 31.4264 166.336L21.7289 176.012L31.4264 185.687C31.7833 186.056 31.9807 186.55 31.9763 187.062C31.9718 187.575 31.7658 188.065 31.4025 188.427C31.0393 188.79 30.5479 188.995 30.0343 189C29.5206 189.004 29.0257 188.807 28.6562 188.451L17.5736 177.394C17.2063 177.027 17 176.53 17 176.012C17 175.493 17.2063 174.996 17.5736 174.63L28.6562 163.572C29.0236 163.206 29.5218 163 30.0413 163C30.5608 163 31.059 163.206 31.4264 163.572V163.572Z" fill="#9C7A61"/>
<path d="M15.3 42H16.45V57.0526H15.3C14.69 57.0526 14.105 56.8086 13.6737 56.3744C13.2423 55.9401 13 55.351 13 54.7368V44.3158C13 43.7016 13.2423 43.1126 13.6737 42.6783C14.105 42.244 14.69 42 15.3 42ZM33.7 57.0526H25.65L26.9403 60.9524C27.0554 61.3005 27.0868 61.6711 27.0318 62.0337C26.9768 62.3964 26.8371 62.7407 26.624 63.0383C26.411 63.3359 26.1308 63.5782 25.8065 63.7455C25.4822 63.9127 25.1231 63.9999 24.7588 64H24.5L18.75 57.7034V42H31.4L35.8988 51.9533L36 52.4211V54.7368C36 55.351 35.7577 55.9401 35.3263 56.3744C34.895 56.8086 34.31 57.0526 33.7 57.0526V57.0526Z" fill="white"/>
<path d="M11.5723 138.574C11.9389 138.206 12.4359 138 12.9542 138C13.4726 138 13.9696 138.206 14.3362 138.574L24.0118 148.271L33.6874 138.574C34.0561 138.217 34.5498 138.019 35.0623 138.024C35.5748 138.028 36.0651 138.234 36.4275 138.597C36.7899 138.961 36.9955 139.452 36.9999 139.966C37.0044 140.479 36.8074 140.974 36.4513 141.344L25.3937 152.426C25.0272 152.794 24.5301 153 24.0118 153C23.4935 153 22.9964 152.794 22.6299 152.426L11.5723 141.344C11.2059 140.976 11 140.478 11 139.959C11 139.439 11.2059 138.941 11.5723 138.574V138.574Z" fill="#463830"/>
</svg>
