<svg width="434" height="90" viewBox="0 0 434 90" fill="none" xmlns="http://www.w3.org/2000/svg">
<path d="M35.1109 41.0001C36.7114 41.6001 37.5116 42.0001 38.3119 42.3001C43.8136 44.6001 46.3144 48.3001 46.3144 54.0001C46.2144 60.4001 43.3135 65.5001 37.9118 67.2001C34.1106 68.4001 29.9093 69.0001 25.908 69.2001C18.2057 69.5001 10.6033 69.2001 2.9009 69.3001C0.700219 69.3001 0 68.7001 0 66.5001C0.100031 50.1001 0.100031 33.7001 0 17.3001C0 15.2001 0.700219 14.6001 2.80087 14.6001C11.3035 14.7001 19.8062 14.6001 28.3088 14.7001C33.0103 14.8001 37.3116 16.2001 40.7126 19.7001C46.5144 25.5001 44.9139 35.7001 37.7117 39.5001C37.1115 39.9001 36.4113 40.3001 35.1109 41.0001ZM21.6067 46.8001C17.9056 46.8001 17.9056 46.8001 17.9056 50.4001C17.9056 50.6001 17.9056 50.7001 17.9056 50.9001C17.9056 56.9001 18.1056 57.1001 24.2075 56.2001C26.7083 55.8001 28.0087 54.4001 28.1087 51.9001C28.3088 48.4001 26.3082 46.8001 21.6067 46.8001ZM21.2066 27.0001C17.8055 27.0001 17.8055 27.0001 17.8055 30.4001C17.8055 31.4001 17.9056 32.4001 17.8055 33.4001C17.7055 35.0001 18.4057 35.7001 20.0062 35.6001C20.9065 35.6001 21.8068 35.6001 22.7071 35.6001C25.2078 35.4001 26.6083 33.9001 26.7083 31.4001C26.8083 28.2001 25.3079 27.0001 21.2066 27.0001Z" fill="#A69174"/>
<path d="M386.82 36.4998C390.321 32.2998 393.722 29.2998 398.824 29.6998C403.925 30.0998 406.826 33.2998 408.927 38.0998C409.827 36.9998 410.428 36.3998 410.928 35.6998C414.229 31.6998 418.33 29.0998 423.732 29.8998C429.834 30.7998 433.635 34.8998 433.835 41.2998C434.135 49.9998 433.935 58.5998 433.935 67.2998C433.935 68.8998 433.235 69.2998 431.734 69.2998C427.433 69.2998 423.031 69.1998 418.73 69.2998C416.729 69.3998 416.129 68.5998 416.129 66.6998C416.229 60.8998 416.129 54.9998 416.129 49.1998C416.129 45.7998 415.329 44.4998 413.328 44.4998C411.428 44.4998 410.227 46.0998 410.227 49.2998C410.127 54.9998 410.127 60.7998 410.227 66.4998C410.227 68.3998 409.827 69.3998 407.627 69.2998C403.625 69.0998 399.624 69.0998 395.623 69.2998C393.422 69.3998 392.922 68.4998 392.922 66.4998C393.022 61.4998 393.022 56.4998 392.922 51.4998C392.922 49.9998 393.022 48.3998 392.422 47.0998C392.022 46.0998 390.621 44.5998 389.921 44.6998C388.821 44.7998 387.32 45.9998 387.02 47.0998C386.42 48.8998 386.52 50.8998 386.52 52.7998C386.42 57.4998 386.42 62.0998 386.52 66.7998C386.52 68.6998 385.82 69.3998 383.919 69.3998C379.818 69.2998 375.717 69.2998 371.715 69.3998C369.815 69.3998 369.015 68.8998 369.015 66.8998C369.115 55.7998 369.115 44.6998 369.015 33.6998C369.015 31.5998 369.815 31.1998 371.715 31.1998C375.617 31.2998 379.518 31.2998 383.419 31.1998C385.52 31.0998 386.62 31.6998 386.32 33.9998C386.42 34.3998 386.62 35.0998 386.82 36.4998Z" fill="#A69174"/>
<path d="M119.537 36.0002C120.037 35.4002 120.537 34.8002 121.138 34.2002C123.438 31.7002 126.239 30.3002 129.64 30.1002C137.343 29.6002 141.844 32.2002 144.645 39.4002C147.446 46.7002 147.546 54.2002 144.345 61.5002C139.943 71.6002 128.64 73.7002 120.738 66.0002C120.137 65.4002 119.737 64.4002 119.337 63.7002C118.937 63.9002 118.637 64.1002 118.237 64.3002C118.137 65.3002 117.937 66.3002 117.937 67.3002C117.937 68.8002 117.436 69.4002 115.936 69.4002C111.735 69.4002 107.433 69.3002 103.232 69.4002C101.432 69.4002 101.231 68.5002 101.231 67.1002C101.231 59.6002 101.231 52.1002 101.231 44.6002C101.231 34.5002 101.231 24.4002 101.231 14.4002C101.231 12.4002 101.832 11.6002 103.932 11.7002C108.134 11.8002 112.435 11.8002 116.636 11.7002C118.537 11.7002 119.137 12.4002 119.137 14.2002C119.037 19.8002 119.037 25.4002 119.037 30.9002C119.037 32.5002 119.037 34.2002 119.037 35.8002C119.137 35.8002 119.337 35.9002 119.537 36.0002ZM123.938 56.7002C126.939 56.7002 129.54 53.8002 129.54 50.5002C129.54 47.0002 126.939 44.2002 123.738 44.3002C120.838 44.4002 118.437 47.2002 118.437 50.5002C118.437 53.8002 121.038 56.7002 123.938 56.7002Z" fill="#A69174"/>
<path d="M241.175 36.1002C241.775 35.6002 242.275 35.4002 242.575 35.1002C250.678 26.4002 262.782 28.5002 266.783 39.6002C269.484 47.0002 269.584 54.7002 266.183 62.0002C261.681 71.8002 250.478 73.6002 242.875 66.0002C242.275 65.4002 241.975 64.4002 241.475 63.7002C241.075 63.9002 240.675 64.1002 240.375 64.3002C240.275 65.4002 240.074 66.4002 240.074 67.5002C240.074 68.9002 239.474 69.4002 238.074 69.4002C233.873 69.4002 229.571 69.3002 225.37 69.4002C223.669 69.4002 223.269 68.6002 223.369 67.1002C223.369 61.3002 223.369 55.4002 223.369 49.6002C223.369 37.9002 223.369 26.1002 223.369 14.4002C223.369 12.4002 223.869 11.6002 226.07 11.7002C230.271 11.8002 234.373 11.8002 238.574 11.7002C240.675 11.6002 241.275 12.5002 241.275 14.5002C241.075 21.2002 241.075 27.8002 240.975 34.5002C240.775 34.8002 241.075 35.3002 241.175 36.1002ZM251.378 50.5002C251.378 46.8002 249.277 44.3002 246.076 44.2002C243.075 44.1002 240.575 46.9002 240.575 50.4002C240.575 53.8002 242.975 56.6002 245.976 56.7002C249.077 56.7002 251.278 54.1002 251.378 50.5002Z" fill="#A69174"/>
<path d="M77.5241 35.7001C77.9243 35.2001 78.1243 35.1001 78.1243 34.9001C78.9246 31.0001 78.9246 31.0001 83.0258 31.0001C86.4269 31.0001 89.8279 31.1001 93.229 31.0001C94.9295 31.0001 95.6298 31.5001 95.6298 33.3001C95.6298 44.5001 95.6298 55.8001 95.6298 67.0001C95.6298 68.6001 95.0296 69.2001 93.4291 69.2001C89.6279 69.1001 85.7267 69.1001 81.9255 69.2001C79.7248 69.3001 78.8245 68.6001 79.0246 66.4001C79.1246 65.7001 78.9246 65.0001 78.7245 63.8001C77.9243 64.3001 77.3241 64.6001 76.9239 65.0001C72.9227 69.7001 67.9211 71.6001 61.9193 69.9001C55.3172 68.0001 52.0162 62.9001 50.9159 56.6001C49.7155 49.8001 50.2156 43.0001 53.6167 36.7001C57.718 29.1001 67.8211 27.3001 74.3231 33.1001C75.4235 34.0001 76.4238 34.8001 77.5241 35.7001ZM67.9211 50.1001C67.9211 53.5001 70.2219 56.2001 73.2228 56.1001C76.2237 56.0001 78.5244 53.4001 78.5244 50.0001C78.5244 46.7001 76.2237 44.3001 73.1228 44.3001C70.0218 44.4001 67.9211 46.7001 67.9211 50.1001Z" fill="#A69174"/>
<path d="M171.453 48.0999C173.054 43.5999 174.854 39.0999 176.155 34.5999C176.955 31.8999 178.155 30.8999 181.056 31.0999C185.758 31.3999 190.559 31.1999 195.761 31.1999C194.66 33.7999 193.76 36.0999 192.76 38.2999C186.358 53.1999 179.856 68.0999 173.454 82.9999C172.654 84.7999 171.753 85.4999 169.753 85.4999C164.451 85.3999 159.149 85.4999 153.448 85.4999C153.648 84.6999 153.748 84.0999 154.048 83.4999C156.348 78.6999 158.649 73.8999 161.15 69.1999C162.15 67.2999 162.05 65.6999 161.15 63.7999C156.448 54.0999 151.847 44.2999 147.246 34.4999C146.846 33.5999 146.445 32.6999 145.845 31.5999C146.645 31.4999 147.246 31.2999 147.946 31.2999C152.947 31.2999 157.949 31.3999 162.951 31.1999C164.951 31.1999 165.751 31.8999 166.252 33.6999C167.352 37.7999 168.652 41.7999 169.853 45.8999C170.053 46.6999 170.353 47.3999 170.653 48.1999C170.953 48.0999 171.253 48.0999 171.453 48.0999Z" fill="#A69174"/>
<path d="M296.192 71.5002C287.989 70.9002 281.687 67.4002 277.086 61.0002C271.084 52.6002 273.485 40.8002 282.388 34.2002C292.891 26.4002 307.895 28.9002 315.298 39.6002C322 49.3002 317.799 63.6002 306.595 68.4002C303.394 70.0002 299.693 70.6002 296.192 71.5002ZM295.892 56.3002C299.093 56.3002 301.594 53.9002 301.694 50.7002C301.794 47.5002 299.393 44.9002 296.192 44.8002C293.091 44.7002 290.49 47.2002 290.39 50.4002C290.39 53.6002 292.891 56.3002 295.892 56.3002Z" fill="#A69174"/>
<path d="M353.11 15.0001C353.11 17.9001 350.709 20.5001 347.908 20.6001C345.007 20.6001 342.606 18.2001 342.506 15.2001C342.506 12.2001 344.807 9.70007 347.708 9.60007C350.609 9.50007 353.11 12.0001 353.11 15.0001Z" fill="white"/>
<path d="M337.104 60.5C335.404 58.6 334.104 56.5 335.504 54C336.304 52.5 336.704 50.5 337.705 49.2L336.804 48.5C336.104 49.9 335.504 51.2 334.904 52.4C333.203 55.6 333.703 58.5 336.204 61.1C337.305 62.3 338.305 63.4 339.405 64.6C340.806 66.1 341.006 67.7 339.805 69.3C338.505 71 337.205 72.7 335.604 74.2C331.503 77.9 328.202 82.1 326.501 87.4C326.201 88.2 326.201 89.2 326.101 90C326.801 89.9 327.101 89.7 327.201 89.4C328.702 83.4 332.203 78.8 336.704 74.7C338.405 73.2 339.805 71.4 341.006 69.6C342.506 67.4 342.106 65.4 340.205 63.5C339.005 62.6 338.005 61.6 337.104 60.5Z" fill="#A69174"/>
<path fill-rule="evenodd" clip-rule="evenodd" d="M341.078 42.9954C353.291 42.7552 363.113 33.2234 363.113 21.5C363.113 9.62588 353.036 0 340.606 0C328.176 0 318.099 9.62588 318.099 21.5C318.099 32.4799 326.715 41.5375 337.841 42.8394L334.604 47L337.105 48.5L341.106 49V43L341.078 42.9954Z" fill="#FF0000"/>
<ellipse cx="347.608" cy="14.5" rx="5.50171" ry="5.5" fill="white"/>
</svg>
