<svg width="215" height="215" viewBox="0 0 215 215" fill="none" xmlns="http://www.w3.org/2000/svg">
<path d="M57.39 45.2956L67 54.9556L57.39 64.6156C57.3032 64.7296 57.1929 64.8236 57.0667 64.8912C56.9404 64.9589 56.8011 64.9986 56.6581 65.0077C56.5151 65.0169 56.3719 64.9952 56.238 64.9441C56.1042 64.893 55.9828 64.8138 55.8823 64.7118C55.7817 64.6098 55.7042 64.4873 55.6551 64.3528C55.6059 64.2182 55.5863 64.0747 55.5975 63.9318C55.6086 63.789 55.6503 63.6503 55.7198 63.525C55.7892 63.3997 55.8848 63.2908 56 63.2056L63.19 55.9556H44.06C43.7948 55.9556 43.5404 55.8503 43.3529 55.6627C43.1654 55.4752 43.06 55.2208 43.06 54.9556C43.06 54.6904 43.1654 54.436 43.3529 54.2485C43.5404 54.061 43.7948 53.9556 44.06 53.9556H63.19L56 46.7056C55.813 46.5173 55.7085 46.2624 55.7094 45.9971C55.7104 45.7317 55.8167 45.4776 56.005 45.2906C56.1933 45.1036 56.4482 44.9991 56.7135 45C56.9789 45.001 57.233 45.1073 57.42 45.2956H57.39Z" fill="white"/>
<circle r="49.5" transform="matrix(-1 0 0 1 55 55)" stroke="white"/>
<path d="M57.39 150.296L67 159.956L57.39 169.616C57.3032 169.73 57.1929 169.824 57.0667 169.891C56.9404 169.959 56.8011 169.999 56.6581 170.008C56.5151 170.017 56.3719 169.995 56.238 169.944C56.1042 169.893 55.9828 169.814 55.8823 169.712C55.7817 169.61 55.7042 169.487 55.6551 169.353C55.6059 169.218 55.5863 169.075 55.5975 168.932C55.6086 168.789 55.6503 168.65 55.7198 168.525C55.7892 168.4 55.8848 168.291 56 168.206L63.19 160.956H44.06C43.7948 160.956 43.5404 160.85 43.3529 160.663C43.1654 160.475 43.06 160.221 43.06 159.956C43.06 159.69 43.1654 159.436 43.3529 159.248C43.5404 159.061 43.7948 158.956 44.06 158.956H63.19L56 151.706C55.813 151.517 55.7085 151.262 55.7094 150.997C55.7104 150.732 55.8167 150.478 56.005 150.291C56.1933 150.104 56.4482 149.999 56.7135 150C56.9789 150.001 57.233 150.107 57.42 150.296H57.39Z" fill="#E7D1BC"/>
<circle r="49.5" transform="matrix(-1 0 0 1 55 160)" stroke="#E7D1BC"/>
<path d="M157.61 45.2956L148 54.9556L157.61 64.6156C157.697 64.7296 157.807 64.8236 157.933 64.8912C158.06 64.9589 158.199 64.9986 158.342 65.0077C158.485 65.0169 158.628 64.9952 158.762 64.9441C158.896 64.893 159.017 64.8138 159.118 64.7118C159.218 64.6098 159.296 64.4873 159.345 64.3528C159.394 64.2182 159.414 64.0747 159.403 63.9318C159.391 63.789 159.35 63.6503 159.28 63.525C159.211 63.3997 159.115 63.2908 159 63.2056L151.81 55.9556H170.94C171.205 55.9556 171.46 55.8503 171.647 55.6627C171.835 55.4752 171.94 55.2208 171.94 54.9556C171.94 54.6904 171.835 54.436 171.647 54.2485C171.46 54.061 171.205 53.9556 170.94 53.9556H151.81L159 46.7056C159.187 46.5173 159.291 46.2624 159.291 45.9971C159.29 45.7317 159.183 45.4776 158.995 45.2906C158.807 45.1036 158.552 44.9991 158.286 45C158.021 45.001 157.767 45.1073 157.58 45.2956H157.61Z" fill="white"/>
<circle cx="160" cy="55" r="49.5" stroke="white"/>
<path d="M157.61 150.296L148 159.956L157.61 169.616C157.697 169.73 157.807 169.824 157.933 169.891C158.06 169.959 158.199 169.999 158.342 170.008C158.485 170.017 158.628 169.995 158.762 169.944C158.896 169.893 159.017 169.814 159.118 169.712C159.218 169.61 159.296 169.487 159.345 169.353C159.394 169.218 159.414 169.075 159.403 168.932C159.391 168.789 159.35 168.65 159.28 168.525C159.211 168.4 159.115 168.291 159 168.206L151.81 160.956H170.94C171.205 160.956 171.46 160.85 171.647 160.663C171.835 160.475 171.94 160.221 171.94 159.956C171.94 159.69 171.835 159.436 171.647 159.248C171.46 159.061 171.205 158.956 170.94 158.956H151.81L159 151.706C159.187 151.517 159.291 151.262 159.291 150.997C159.29 150.732 159.183 150.478 158.995 150.291C158.807 150.104 158.552 149.999 158.286 150C158.021 150.001 157.767 150.107 157.58 150.296H157.61Z" fill="#E7D1BC"/>
<circle cx="160" cy="160" r="49.5" stroke="#E7D1BC"/>
</svg>
